/* XPM */
static char *collectible_xpm[] = {
"32 32 6 1",
"  c #6A6A6A",
". c #2A2B2A",
"g c #1A431B",
"s c #102911",
"w c #FFFFFF",
"c c #8A6F4D",
"                                ",
"                                ",
"                                ",
"                                ",
"            ..                  ",
"           .cc.                 ",
"           .cc.                 ",
"           .gg.                 ",
"          .gggg.                ",
"         .gggggg.               ",
"         .sggggg.               ",
"        .ssgggggg.              ",
"        .sggggggs.              ",
"        .sggggggs.              ",
"        .sggggggs.              ",
"        .sggggggs.              ",
"        .swwggwws.              ",
"        .swwggwws.              ",
"        .sggggggs.              ",
"        .sggggggs.              ",
"        .sggggggs.              ",
"        .sggggggs.              ",
"        .sggggggs.              ",
"        .sggggggs.              ",
"        .ssggggss.              ",
"         .sggggs.               ",
"          .ssss.                ",
"           ....                 ",
"                                ",
"                                ",
"                                ",
"                                "
};
