/* XPM */
static char *exit_xpm[] = {
"32 32 12 1",
" 	c #6A6A6A",
".	c #FFFFFF",
"+	c #E0F8E0",
"@	c #90EE90",
"#	c #7FD87F",
"$	c #6BC66B",
"%	c #4CAF4C",
"&	c #3D9E3D",
"*	c #2E8B2E",
"=	c #1F7B1F",
"-	c #106A10",
";	c #005500",
"                                ",
"                                ",
"          .  .    .             ",
"        @@@@@@@@@@@@@           ",
"       @@@@@@@@@@@@@@@.         ",
"      .@@@###########@@         ",
"     . @@###$$$$$$$##@@  .      ",
"     .@@@##$$%%%%%$$#@@.        ",
"    .@@@##$%%&&&&&%%$##@.       ",
"    @@@##$$%&&***&&%$$#@@       ",
"   .@@##$$%%&**==**&%$$##@      ",
"   @@@#$$%%&&*=-;;-*&%%$##@.    ",
"   @@##$$%%&&*=;--;=*&%$$#@@    ",
"  .@@#$$%%&&**=-;;-=**&%%$#@@   ",
"  @@@#$$%%&&**=----=**&%$$##@.  ",
"  @@@#$$%%&&**=----=**&%$$##@   ",
"  .@@#$$%%&&**=-;;-=**&%%$#@@   ",
"   @@##$$%%&&*=;--;=*&%$$#@@    ",
"   @@@#$$%%&&*=-;;-*&%%$##@.    ",
"   .@@##$$%%&**==**&%$$##@      ",
"    @@@##$$%&&***&&%$$#@@       ",
"    .@@@##$%%&&&&&%%$##@.  .    ",
"     .@@@##$$%%%%%$$#@@.        ",
"     . @@###$$$$$$$##@@  .      ",
"      .@@@###########@@         ",
"       @@@@@@@@@@@@@@@. .       ",
"        @@@@@@@@@@@@@           ",
"          .    .  .             ",
"                                ",
"                                ",
"                                ",
"                                "
};
