/* XPM */
static char *floor_xpm[] = {
"32 32 10 1",
" 	c #6A6A6A",
".	c #5F5F5F",
"+	c #757575",
"@	c #4A4A4A",
"#	c #636363",
"$	c #707070",
"%	c #3A3A3A",
"&	c #00FF00",
"*	c #FF00FF",
"=	c #FFFF00",
"  ..  ++  ##  $$    ..  ++  ##  ",
" .  .+  +#  #$ $  .  .+  +#  #$ ",
".    +    #    $    +    #    $ ",
" .  .+  +#  #$ $  .  .+  +#  #$ ",
"  ..  ++  ##  $$    ..  ++  ##  ",
" .  .+  +#  #$ $  .  .+  +#  #$ ",
".  @ +    #    $    +    #    $ ",
" .  .+  +#  #$ $  .  .+  +#  #$ ",
"  ..  ++  ##  $$  & ..  ++  ##  ",
" .  .+  +#  #$ $  .  .+  +#  #$ ",
".    +    #    $ &   +    #    $",
" .  .+  +#  #$ $  .  .+  +#  #$ ",
"  ..  ++  ##  $$    ..  ++ %##  ",
" .  .+  +#  #$ $  .  .+  +#  #$ ",
".    +    # *  $    +    #    $ ",
" .  .+  +#  #$ $  .  .+  +#  #$ ",
"  ..  ++  ##  $$    ..  ++  ##  ",
" .  .+  +#  #$ $  . =.+  +#  #$ ",
".    +    #  @ $    +    #    $ ",
" .  .+  +#  #$ $  .  .+  +#  #$ ",
"  ..  ++  ##  $$    ..  ++  ##  ",
" .  .+  +#  #$ $  .  .+  +# @#$ ",
".    +    #    $    +  @ #    $ ",
" .  .+  +#  #$ $  .  .+  +#  #$ ",
"  ..  ++  ##  $$    ..  ++  ##  ",
" .  .+  +#  #$ $  .  .+  +#  #$ ",
".    +    #    $  % +    #    $ ",
" .  .+  +# @#$ $  .  .+  +#  #$ ",
"  ..  ++  ##  $$    ..  ++  ##  ",
" .  .+  +#  #$ $ @.  .+  +#  #$ ",
".    +    #    $    +    #    $ ",
" .  .+  +#  #$ $  .  .+  +#  #$ "
};
